HIERARCHY
ROOT Hips
{
	OFFSET	0	0	0
	CHANNELS 6  Xposition Yposition Zposition Xrotation Yrotation Zrotation
	JOINT Spine
	{
		OFFSET	0	7.0817	1.42564
		CHANNELS 3  Xrotation Yrotation Zrotation
		JOINT Spine1
		{
			OFFSET	0	12.1578	-2.17103
			CHANNELS 3  Xrotation Yrotation Zrotation
			JOINT Spine2
			{
				OFFSET	0	9.21601	0.987817
				CHANNELS 3  Xrotation Yrotation Zrotation
				JOINT Spine3
				{
					OFFSET	0	11.0288	3.27825
					CHANNELS 3  Xrotation Yrotation Zrotation
					JOINT Spine4
					{
						OFFSET	0	16.3261	-1.67169
						CHANNELS 3  Xrotation Yrotation Zrotation
						JOINT Neck
						{
							OFFSET	0	7.79399	-5.46013
							CHANNELS 3  Xrotation Yrotation Zrotation
							JOINT Head
							{
								OFFSET	0	9.35713	-2.80063
								CHANNELS 3  Xrotation Yrotation Zrotation
								End Site
								{
									OFFSET	0	19.5175	-0.944397
								}
							}
						}
					}
					JOINT LeftShoulder
					{
						OFFSET	-4.68942	19.8432	-9.35713
						CHANNELS 3  Xrotation Yrotation Zrotation
						JOINT LeftArm
						{
							OFFSET	-10.2519	-2.80063	3.59307
							CHANNELS 3  Xrotation Yrotation Zrotation
							JOINT LeftForeArm
							{
								OFFSET	-34.1249	-1.55752	2.4358
								CHANNELS 3  Xrotation Yrotation Zrotation
								JOINT LeftHand
								{
									OFFSET	-28.1809	-1.94746	2.01152
									CHANNELS 3  Xrotation Yrotation Zrotation
									End Site
									{
										OFFSET	-10.2846	-0.710727	0.734058
									}
								}
							}
						}
					}
					JOINT RightShoulder
					{
						OFFSET	4.68942	19.8432	-9.35713
						CHANNELS 3  Xrotation Yrotation Zrotation
						JOINT RightArm
						{
							OFFSET	10.2519	-2.80063	3.59307
							CHANNELS 3  Xrotation Yrotation Zrotation
							JOINT RightForeArm
							{
								OFFSET	34.1249	-1.55752	2.4358
								CHANNELS 3  Xrotation Yrotation Zrotation
								JOINT RightHand
								{
									OFFSET	28.1809	-1.94746	2.01152
									CHANNELS 3  Xrotation Yrotation Zrotation
									End Site
									{
										OFFSET	10.2846	-0.710727	0.734058
									}
								}
							}
						}
					}
				}
			}
		}
	}
	JOINT LeftUpLeg
	{
		OFFSET	-9.64475	-3.54085	-0.712821
		CHANNELS 3  Xrotation Yrotation Zrotation
		JOINT LeftLeg
		{
			OFFSET	-2.14734	-42.0762	-0.657743
			CHANNELS 3  Xrotation Yrotation Zrotation
			JOINT LeftFoot
			{
				OFFSET	-2.09898	-38.6909	3.32741
				CHANNELS 3  Xrotation Yrotation Zrotation
				JOINT LeftToeBase
				{
					OFFSET	0	-4.81787	-12.7963
					CHANNELS 3  Xrotation Yrotation Zrotation
					End Site
					{
						OFFSET	0	-1.92715	-7.70859
					}
				}
			}
		}
	}
	JOINT RightUpLeg
	{
		OFFSET	9.64475	-3.54085	-0.712821
		CHANNELS 3  Xrotation Yrotation Zrotation
		JOINT RightLeg
		{
			OFFSET	2.14734	-42.0762	-0.657743
			CHANNELS 3  Xrotation Yrotation Zrotation
			JOINT RightFoot
			{
				OFFSET	2.09898	-38.6909	3.32741
				CHANNELS 3  Xrotation Yrotation Zrotation
				JOINT RightToeBase
				{
					OFFSET	0	-4.81787	-12.7963
					CHANNELS 3  Xrotation Yrotation Zrotation
					End Site
					{
						OFFSET	0	-1.92715	-7.70859
					}
				}
			}
		}
	}
}
MOTION
Frames: 8
Frame Time: 0.020408
 54.7779 89.9129 -283.212 14.9211 -144.041 14.3531 179.999 -179.978 178.197 6.14075 -0.0444209 -3.00467 6.85947 -0.133263 -3.00467 6.26483 -0.02223 -1.8028 176.984 179.968 179.4 165.721 -171.668 -177.481 175.452 -162.624 178.623 1.07038 -9.35737 2.21107 137.503 -102.014 -136.374 3.89316 -21.927 -0.368298 -0 4.17144 2.51489 0.0364305 -4.96605 -0.0668254 153.467 142.167 119.414 123.595 158.092 -148.319 -0 5.14546 -14.6236 23.6556 8.64994 -3.80197 144.977 -160.379 179.858 18.3175 0.136165 11.4309 179.559 180 -180 8.17073 -47.8967 0.819328 167.188 -167.519 -179.184 7.62063 0.926719 -10.187 0.395414 0 0
 55.6111 90.1076 -283.157 14.6307 -146.992 13.4938 179.999 -179.956 178.281 6.11717 -0.0884021 -2.86492 6.88911 -0.265206 -2.86494 6.42211 -0.0442365 -1.71895 176.575 179.966 179.428 164.625 -170.243 -177.614 175.013 -159.982 178.184 1.08666 -7.98324 2.22654 141.154 -102.069 -131.463 4.42394 -20.6414 -0.585334 -0 3.64527 2.99899 0.189999 -5.45984 -0.346605 153.865 141.039 119.756 123.596 158.843 -149.345 -0 4.81065 -13.6608 20.8004 9.08482 -2.92947 147.388 -160.774 -179.748 24.0358 -0.162949 11.5305 179.554 180 -180 12.1492 -47.9533 3.69251 165.044 -166.2 -178.904 6.59077 1.41705 -10.2465 0.48068 0 0
 56.476 89.9986 -283.223 15.2856 -146.314 13.1296 5.70317e-05 0.00198868 -1.64268 6.01321 0.00397446 -2.73781 6.89209 0.0119234 -2.73781 6.64422 0.00198868 -1.64268 175.855 179.96 179.454 162.736 -167.825 179.703 174.259 -156.675 176.897 1.19756 -5.18869 2.40885 143.507 -103.942 -130.083 5.13343 -21.8646 -0.00685772 -0 2.01541 2.07968 0.0201274 -5.99511 -0.0364938 153.355 139.953 119.869 123.919 159.934 -150.323 -0 4.5968 -12.2615 19.701 8.79285 -1.91963 151.767 -162.28 179.868 25.2952 -0.0384747 11.4992 179.541 180 -180 14.9003 -47.0655 6.57634 163.174 -164.363 -179.366 6.66042 0.740549 -10.0131 0.574673 0 0
 57.5207 89.8576 -282.633 15.1132 -145.093 13.1582 0.00107603 0.0397956 -1.54883 5.9074 0.0795396 -2.58139 6.79269 0.238619 -2.58141 6.5713 0.0397956 -1.54883 175.821 179.962 179.485 162.865 -165.442 178.951 174.057 -152.469 176.087 1.23202 -3.45895 2.44654 146.602 -104.467 -127.351 6.29103 -21.7092 0.740493 -0 1.51532 1.81831 179.681 -171.956 -179.435 152.1 139.627 120.425 123.925 160.332 -150.329 -0 3.65277 -9.38452 17.5238 8.01712 -0.224231 154.165 -162.812 -179.817 21.9889 -0.12448 11.5204 179.52 180 -180 15.7952 -45.3076 7.80833 160.217 -162.795 -179.592 7.04891 0.240361 -9.99215 0.696492 0 0
 57.3056 90.1008 -282.102 14.772 -144.876 13.3446 0.00167195 0.0598102 -1.60124 5.73794 0.119537 -2.66874 6.64022 0.358612 -2.66878 6.49667 0.0598102 -1.60124 175.673 179.96 179.468 162.707 -163.685 178.77 173.77 -149.139 175.496 1.25303 -3.3691 2.48657 147.718 -105.309 -126.444 7.20507 -21.0559 1.08228 -0 1.10224 2.01474 179.531 -170.414 -179.186 151.642 139.299 120.768 123.656 160.175 -149.971 -0 2.37251 -6.23007 15.226 7.12563 0.767611 155.455 -163.163 -179.676 19.935 -0.0852389 11.405 179.507 180 -180 17.3682 -43.7608 8.82029 156.276 -161.491 179.925 6.27245 -0.110325 -8.72744 0.767557 0 0
 58.347 90.0694 -281.591 13.854 -142.77 13.1477 0.000433763 0.0148377 -1.6745 5.52104 0.0296528 -2.79083 6.42041 0.0889585 -2.79084 6.36959 0.0148377 -1.6745 175.565 179.957 179.444 162.633 -162.943 178.11 173.657 -148.017 175.132 1.36749 -6.80209 2.78153 149.781 -104.674 -123.689 8.29883 -20.6417 1.42558 -0 0.483527 2.70043 179.159 -168.999 -178.568 150.468 139.319 121.677 123.841 160.452 -150.665 -0 1.26306 -3.39806 13.2288 6.23738 1.07555 156.359 -163.347 -179.588 19.6526 -0.0788202 11.4599 179.5 180 -180 20.0987 -41.2229 11.0911 150.252 -160.215 -179.487 0.0686457 -0.0878105 -6.66964 0.812105 0 0
 59.2639 90.1972 -281.407 12.5916 -141.872 11.0699 0.000413315 0.0149498 -1.58365 5.2356 0.0298792 -2.63942 6.12904 0.0896377 -2.63942 6.16196 0.0149498 -1.58365 175.51 179.959 179.474 162.778 -163.008 179.407 173.663 -147.524 175.399 1.19428 -8.10787 2.44909 149.845 -104.752 -123.308 9.5464 -21.6154 1.79971 -0 -0.517797 3.04772 178.678 -167.862 -177.785 149.291 139.651 123.162 124.401 160.719 -151.547 -0 0.733531 -0.860201 13.0231 4.34684 1.53275 157.223 -163.64 179.789 18.5493 -0.030243 11.4616 179.492 180 -180 22.1232 -39.1413 12.6665 147.583 -158.319 -179.95 0.838229 -0.0382823 -6.2999 0.920575 0 0
 60.1171 90.1442 -280.85 11.0797 -141.453 9.17699 0.00016696 0.0063412 -1.50822 4.97609 0.0126746 -2.5137 5.82573 0.0380237 -2.5137 5.86275 0.0063412 -1.50822 175.719 179.962 179.499 163.683 -163.147 -178.348 173.909 -146.744 175.953 0.738487 -10.6842 1.53635 150.067 -104.476 -123.06 10.9724 -22.577 2.69296 -0 -1.42797 4.02031 178.686 -165.498 -177.876 149.468 140.158 123.744 125.253 160.584 -151.973 -0 0.198606 2.12022 11.3511 2.63381 1.61425 159.145 -164.128 -179.727 18.44 -0.0736491 11.4666 179.475 180 -180 23.3528 -37.3545 13.7981 145.064 -156.76 -179.877 1.16096 -0.010901 -5.83238 1.01061 0 0
